<?xml version="1.0" standalone="no"?>
<svg xmlns="http://www.w3.org/2000/svg" xmlns:xlink="http://www.w3.org/1999/xlink" width="1618pt" height="332pt" viewBox="0.00 0.00 1617.55 332.00">
<g id="graph0" class="graph" transform="translate(4,328) scale(1)" data-name="G">

<polygon fill="white" stroke="transparent" points="-4,4 -4,-328 1613.55,-328 1613.55,4 -4,4" style=""/>
<!-- FumigacionContract -->
<g id="node1" class="node" pointer-events="visible" data-name="FumigacionContract">

<ellipse fill="none" stroke="black" cx="400.13" cy="-306" rx="90.35" ry="18" style=""/>
<text text-anchor="middle" x="400.13" y="-301.8" font-family="Times,serif" font-size="14.00" style="">FumigacionContract</text>
</g>
<!-- Ownable -->
<g id="node2" class="node" pointer-events="visible" data-name="Ownable">

<ellipse fill="none" stroke="black" cx="424.13" cy="-234" rx="45.79" ry="18" style=""/>
<text text-anchor="middle" x="424.13" y="-229.8" font-family="Times,serif" font-size="14.00" style="">Ownable</text>
</g>
<!-- FumigacionContract&#45;&gt;Ownable -->
<g id="edge1" class="edge" data-name="FumigacionContract-&gt;Ownable">

<path fill="none" stroke="black" d="M406.06,-287.7C408.74,-279.9 411.96,-270.51 414.93,-261.83" style=""/>
<polygon fill="black" stroke="black" points="418.34,-262.7 418.27,-252.1 411.71,-260.43 418.34,-262.7" style=""/>
</g>
<!-- Context -->
<g id="node5" class="node" pointer-events="visible" data-name="Context">

<ellipse fill="none" stroke="black" cx="424.13" cy="-162" rx="41.73" ry="18" style=""/>
<text text-anchor="middle" x="424.13" y="-157.8" font-family="Times,serif" font-size="14.00" style="">Context</text>
</g>
<!-- Ownable&#45;&gt;Context -->
<g id="edge10" class="edge" data-name="Ownable-&gt;Context">

<path fill="none" stroke="black" d="M424.13,-215.7C424.13,-207.98 424.13,-198.71 424.13,-190.11" style=""/>
<polygon fill="black" stroke="black" points="427.63,-190.1 424.13,-180.1 420.63,-190.1 427.63,-190.1" style=""/>
</g>
<!-- DronContract -->
<g id="node3" class="node" pointer-events="visible" data-name="DronContract">

<ellipse fill="none" stroke="black" cx="64.13" cy="-306" rx="64.26" ry="18" style=""/>
<text text-anchor="middle" x="64.13" y="-301.8" font-family="Times,serif" font-size="14.00" style="">DronContract</text>
</g>
<!-- ERC721 -->
<g id="node4" class="node" pointer-events="visible" data-name="ERC721">

<ellipse fill="none" stroke="black" cx="219.13" cy="-234" rx="44.1" ry="18" style=""/>
<text text-anchor="middle" x="219.13" y="-229.8" font-family="Times,serif" font-size="14.00" style="">ERC721</text>
</g>
<!-- DronContract&#45;&gt;ERC721 -->
<g id="edge2" class="edge" data-name="DronContract-&gt;ERC721">

<path fill="none" stroke="black" d="M96.63,-290.33C121.37,-279.15 155.49,-263.74 181.43,-252.03" style=""/>
<polygon fill="black" stroke="black" points="182.92,-255.2 190.59,-247.89 180.04,-248.82 182.92,-255.2" style=""/>
</g>
<!-- ERC721&#45;&gt;Context -->
<g id="edge3" class="edge" data-name="ERC721-&gt;Context">

<path fill="none" stroke="black" d="M252.07,-221.75C287.6,-209.62 344.25,-190.28 382.76,-177.13" style=""/>
<polygon fill="black" stroke="black" points="384.29,-180.3 392.62,-173.76 382.03,-173.68 384.29,-180.3" style=""/>
</g>
<!-- ERC165 -->
<g id="node6" class="node" pointer-events="visible" data-name="ERC165">

<ellipse fill="none" stroke="black" cx="257.13" cy="-90" rx="44.1" ry="18" style=""/>
<text text-anchor="middle" x="257.13" y="-85.8" font-family="Times,serif" font-size="14.00" style="">ERC165</text>
</g>
<!-- ERC721&#45;&gt;ERC165 -->
<g id="edge4" class="edge" data-name="ERC721-&gt;ERC165">

<path fill="none" stroke="black" d="M223.72,-215.87C230.22,-191.56 242.19,-146.82 249.9,-118.01" style=""/>
<polygon fill="black" stroke="black" points="253.33,-118.75 252.53,-108.19 246.57,-116.94 253.33,-118.75" style=""/>
</g>
<!-- IERC721 -->
<g id="node7" class="node" pointer-events="visible" data-name="IERC721">

<ellipse fill="none" stroke="black" cx="147.13" cy="-90" rx="47.53" ry="18" style=""/>
<text text-anchor="middle" x="147.13" y="-85.8" font-family="Times,serif" font-size="14.00" style="">IERC721</text>
</g>
<!-- ERC721&#45;&gt;IERC721 -->
<g id="edge5" class="edge" data-name="ERC721-&gt;IERC721">

<path fill="none" stroke="black" d="M218.36,-215.94C216.88,-197.26 212.58,-166.9 200.13,-144 193.87,-132.48 184.32,-121.81 175.05,-113.12" style=""/>
<polygon fill="black" stroke="black" points="177.2,-110.34 167.4,-106.3 172.54,-115.57 177.2,-110.34" style=""/>
</g>
<!-- IERC721Metadata -->
<g id="node8" class="node" pointer-events="visible" data-name="IERC721Metadata">

<ellipse fill="none" stroke="black" cx="108.13" cy="-162" rx="83.39" ry="18" style=""/>
<text text-anchor="middle" x="108.13" y="-157.8" font-family="Times,serif" font-size="14.00" style="">IERC721Metadata</text>
</g>
<!-- ERC721&#45;&gt;IERC721Metadata -->
<g id="edge6" class="edge" data-name="ERC721-&gt;IERC721Metadata">

<path fill="none" stroke="black" d="M196.13,-218.5C180.67,-208.74 160,-195.71 142.59,-184.73" style=""/>
<polygon fill="black" stroke="black" points="144.14,-181.57 133.82,-179.2 140.41,-187.49 144.14,-181.57" style=""/>
</g>
<!-- IERC165 -->
<g id="node9" class="node" pointer-events="visible" data-name="IERC165">

<ellipse fill="none" stroke="black" cx="202.13" cy="-18" rx="47.53" ry="18" style=""/>
<text text-anchor="middle" x="202.13" y="-13.8" font-family="Times,serif" font-size="14.00" style="">IERC165</text>
</g>
<!-- ERC165&#45;&gt;IERC165 -->
<g id="edge9" class="edge" data-name="ERC165-&gt;IERC165">

<path fill="none" stroke="black" d="M244.1,-72.41C237.32,-63.78 228.9,-53.06 221.38,-43.5" style=""/>
<polygon fill="black" stroke="black" points="224,-41.17 215.07,-35.47 218.5,-45.5 224,-41.17" style=""/>
</g>
<!-- IERC721&#45;&gt;IERC165 -->
<g id="edge7" class="edge" data-name="IERC721-&gt;IERC165">

<path fill="none" stroke="black" d="M160.17,-72.41C166.95,-63.78 175.37,-53.06 182.88,-43.5" style=""/>
<polygon fill="black" stroke="black" points="185.77,-45.5 189.19,-35.47 180.26,-41.17 185.77,-45.5" style=""/>
</g>
<!-- IERC721Metadata&#45;&gt;IERC721 -->
<g id="edge8" class="edge" data-name="IERC721Metadata-&gt;IERC721">

<path fill="none" stroke="black" d="M117.57,-144.05C122.17,-135.8 127.8,-125.7 132.9,-116.54" style=""/>
<polygon fill="black" stroke="black" points="135.97,-118.23 137.78,-107.79 129.85,-114.82 135.97,-118.23" style=""/>
</g>
<!-- IERC721Receiver -->
<g id="node10" class="node" pointer-events="visible" data-name="IERC721Receiver">

<ellipse fill="none" stroke="black" cx="787.13" cy="-306" rx="81.66" ry="18" style=""/>
<text text-anchor="middle" x="787.13" y="-301.8" font-family="Times,serif" font-size="14.00" style="">IERC721Receiver</text>
</g>
<!-- Address -->
<g id="node11" class="node" pointer-events="visible" data-name="Address">

<ellipse fill="none" stroke="black" cx="930.13" cy="-306" rx="42.86" ry="18" style=""/>
<text text-anchor="middle" x="930.13" y="-301.8" font-family="Times,serif" font-size="14.00" style="">Address</text>
</g>
<!-- Strings -->
<g id="node12" class="node" pointer-events="visible" data-name="Strings">

<ellipse fill="none" stroke="black" cx="1029.13" cy="-306" rx="38.3" ry="18" style=""/>
<text text-anchor="middle" x="1029.13" y="-301.8" font-family="Times,serif" font-size="14.00" style="">Strings</text>
</g>
<!-- Counters -->
<g id="node13" class="node" pointer-events="visible" data-name="Counters">

<ellipse fill="none" stroke="black" cx="1131.13" cy="-306" rx="45.81" ry="18" style=""/>
<text text-anchor="middle" x="1131.13" y="-301.8" font-family="Times,serif" font-size="14.00" style="">Counters</text>
</g>
<!-- TiposContract -->
<g id="node14" class="node" pointer-events="visible" data-name="TiposContract">

<ellipse fill="none" stroke="black" cx="1261.13" cy="-306" rx="66.07" ry="18" style=""/>
<text text-anchor="middle" x="1261.13" y="-301.8" font-family="Times,serif" font-size="14.00" style="">TiposContract</text>
</g>
<!-- EnumerableSet -->
<g id="node15" class="node" pointer-events="visible" data-name="EnumerableSet">

<ellipse fill="none" stroke="black" cx="1415.13" cy="-306" rx="70.06" ry="18" style=""/>
<text text-anchor="middle" x="1415.13" y="-301.8" font-family="Times,serif" font-size="14.00" style="">EnumerableSet</text>
</g>
<!-- ERC20 -->
<g id="node16" class="node" pointer-events="visible" data-name="ERC20">

<ellipse fill="none" stroke="black" cx="574.13" cy="-234" rx="39.45" ry="18" style=""/>
<text text-anchor="middle" x="574.13" y="-229.8" font-family="Times,serif" font-size="14.00" style="">ERC20</text>
</g>
<!-- ERC20&#45;&gt;Context -->
<g id="edge11" class="edge" data-name="ERC20-&gt;Context">

<path fill="none" stroke="black" d="M547.66,-220.65C523.43,-209.34 487.37,-192.51 460.46,-179.95" style=""/>
<polygon fill="black" stroke="black" points="461.89,-176.76 451.35,-175.7 458.93,-183.1 461.89,-176.76" style=""/>
</g>
<!-- IERC20 -->
<g id="node17" class="node" pointer-events="visible" data-name="IERC20">

<ellipse fill="none" stroke="black" cx="587.13" cy="-90" rx="42.88" ry="18" style=""/>
<text text-anchor="middle" x="587.13" y="-85.8" font-family="Times,serif" font-size="14.00" style="">IERC20</text>
</g>
<!-- ERC20&#45;&gt;IERC20 -->
<g id="edge12" class="edge" data-name="ERC20-&gt;IERC20">

<path fill="none" stroke="black" d="M565.11,-216.46C556.49,-198.48 545.81,-168.98 553.13,-144 556.05,-134.03 561.49,-124.17 567.17,-115.7" style=""/>
<polygon fill="black" stroke="black" points="570.11,-117.6 573.08,-107.43 564.42,-113.53 570.11,-117.6" style=""/>
</g>
<!-- IERC20Metadata -->
<g id="node18" class="node" pointer-events="visible" data-name="IERC20Metadata">

<ellipse fill="none" stroke="black" cx="641.13" cy="-162" rx="78.73" ry="18" style=""/>
<text text-anchor="middle" x="641.13" y="-157.8" font-family="Times,serif" font-size="14.00" style="">IERC20Metadata</text>
</g>
<!-- ERC20&#45;&gt;IERC20Metadata -->
<g id="edge13" class="edge" data-name="ERC20-&gt;IERC20Metadata">

<path fill="none" stroke="black" d="M589.34,-217.12C597.83,-208.24 608.58,-197.01 618.09,-187.08" style=""/>
<polygon fill="black" stroke="black" points="620.67,-189.44 625.05,-179.8 615.61,-184.6 620.67,-189.44" style=""/>
</g>
<!-- IERC20Metadata&#45;&gt;IERC20 -->
<g id="edge14" class="edge" data-name="IERC20Metadata-&gt;IERC20">

<path fill="none" stroke="black" d="M628.06,-144.05C621.4,-135.42 613.18,-124.76 605.85,-115.27" style=""/>
<polygon fill="black" stroke="black" points="608.59,-113.09 599.71,-107.31 603.05,-117.36 608.59,-113.09" style=""/>
</g>
<!-- ParcelaContract -->
<g id="node19" class="node" pointer-events="visible" data-name="ParcelaContract">

<ellipse fill="none" stroke="black" cx="219.13" cy="-306" rx="72.91" ry="18" style=""/>
<text text-anchor="middle" x="219.13" y="-301.8" font-family="Times,serif" font-size="14.00" style="">ParcelaContract</text>
</g>
<!-- ParcelaContract&#45;&gt;ERC721 -->
<g id="edge15" class="edge" data-name="ParcelaContract-&gt;ERC721">

<path fill="none" stroke="black" d="M219.13,-287.7C219.13,-279.98 219.13,-270.71 219.13,-262.11" style=""/>
<polygon fill="black" stroke="black" points="222.63,-262.1 219.13,-252.1 215.63,-262.1 222.63,-262.1" style=""/>
</g>
<!-- FumiTokenContract -->
<g id="node20" class="node" pointer-events="visible" data-name="FumiTokenContract">

<ellipse fill="none" stroke="black" cx="598.13" cy="-306" rx="89.21" ry="18" style=""/>
<text text-anchor="middle" x="598.13" y="-301.8" font-family="Times,serif" font-size="14.00" style="">FumiTokenContract</text>
</g>
<!-- FumiTokenContract&#45;&gt;Ownable -->
<g id="edge17" class="edge" data-name="FumiTokenContract-&gt;Ownable">

<path fill="none" stroke="black" d="M559.95,-289.64C531.64,-278.25 493.13,-262.76 464.34,-251.18" style=""/>
<polygon fill="black" stroke="black" points="465.57,-247.9 454.98,-247.41 462.96,-254.39 465.57,-247.9" style=""/>
</g>
<!-- FumiTokenContract&#45;&gt;ERC20 -->
<g id="edge16" class="edge" data-name="FumiTokenContract-&gt;ERC20">

<path fill="none" stroke="black" d="M592.2,-287.7C589.53,-279.9 586.31,-270.51 583.33,-261.83" style=""/>
<polygon fill="black" stroke="black" points="586.55,-260.43 580,-252.1 579.93,-262.7 586.55,-260.43" style=""/>
</g>
<!-- Migrations -->
<g id="node21" class="node" pointer-events="visible" data-name="Migrations">

<ellipse fill="none" stroke="black" cx="1556.13" cy="-306" rx="53.33" ry="18" style=""/>
<text text-anchor="middle" x="1556.13" y="-301.8" font-family="Times,serif" font-size="14.00" style="">Migrations</text>
</g>
</g>
</svg>