<?xml version="1.0" standalone="no"?>
<svg xmlns="http://www.w3.org/2000/svg" xmlns:xlink="http://www.w3.org/1999/xlink" width="278pt" height="292pt" viewBox="0.00 0.00 278.19 292.00">
<g id="graph0" class="graph" transform="translate(4,288) scale(1)" data-name="G">

<polygon fill="#2e3e56" stroke="transparent" points="-4,4 -4,-288 274.19,-288 274.19,4 -4,4" style=""/>
<g id="clust1" class="cluster" data-name="clusterFumiTokenContract">

<path fill="#445773" stroke="#445773" d="M20,-8C20,-8 250.19,-8 250.19,-8 256.19,-8 262.19,-14 262.19,-20 262.19,-20 262.19,-127 262.19,-127 262.19,-133 256.19,-139 250.19,-139 250.19,-139 20,-139 20,-139 14,-139 8,-133 8,-127 8,-127 8,-20 8,-20 8,-14 14,-8 20,-8" style=""/>
<text text-anchor="middle" x="135.09" y="-122.4" font-family="Times,serif" font-size="14.00" fill="#f0f0f0" style="">FumiTokenContract</text>
</g>
<g id="clust2" class="cluster" data-name="cluster_01">

<polygon fill="#2e3e56" stroke="black" points="10.52,-147 10.52,-276 255.61,-276 255.61,-147 10.52,-147" style=""/>
<text text-anchor="middle" x="133.07" y="-259.4" font-family="Times,serif" font-size="14.00" style="">Legend</text>
</g>
<!-- FumiTokenContract.&lt;Constructor&gt; -->
<g id="node1" class="node" pointer-events="visible" data-name="FumiTokenContract.&lt;Constructor&gt;">

<ellipse fill="#ff9797" stroke="#ff9797" stroke-width="3" cx="83.52" cy="-88" rx="67.54" ry="18" style=""/>
<text text-anchor="middle" x="83.52" y="-83.8" font-family="Times,serif" font-size="14.00" style="">&lt;Constructor&gt;</text>
</g>
<!-- FumiTokenContract.mint -->
<g id="node2" class="node" pointer-events="visible" data-name="FumiTokenContract.mint">

<ellipse fill="#ff9797" stroke="#ff9797" stroke-width="3" cx="83.52" cy="-34" rx="28.99" ry="18" style=""/>
<text text-anchor="middle" x="83.52" y="-29.8" font-family="Times,serif" font-size="14.00" style="">mint</text>
</g>
<!-- FumiTokenContract._mint -->
<g id="node3" class="node" pointer-events="visible" data-name="FumiTokenContract._mint">

<ellipse fill="#edad56" stroke="#edad56" stroke-width="3" cx="220.61" cy="-34" rx="33.65" ry="18" style=""/>
<text text-anchor="middle" x="220.61" y="-29.8" font-family="Times,serif" font-size="14.00" style="">_mint</text>
</g>
<!-- FumiTokenContract.mint&#45;&gt;FumiTokenContract._mint -->
<g id="edge1" class="edge" data-name="FumiTokenContract.mint-&gt;FumiTokenContract._mint">

<path fill="none" stroke="#1bc6a6" stroke-width="2" d="M112.51,-34C131.02,-34 155.66,-34 176.63,-34" style=""/>
<polygon fill="#1bc6a6" stroke="#1bc6a6" stroke-width="2" points="176.9,-37.5 186.9,-34 176.9,-30.5 176.9,-37.5" style=""/>
</g>
<!-- key -->
<g id="node4" class="node" pointer-events="visible" data-name="key">

<polygon fill="#edad56" stroke="transparent" stroke-width="3" points="148.52,-243 18.52,-243 18.52,-155 148.52,-155 148.52,-243" style=""/>
<text text-anchor="start" x="68.16" y="-224.4" font-family="Times,serif" font-size="14.00" style="">Internal Call</text>
<text text-anchor="start" x="64.26" y="-204.4" font-family="Times,serif" font-size="14.00" style="">External Call</text>
<text text-anchor="start" x="41.73" y="-184.4" font-family="Times,serif" font-size="14.00" style="">Defined Contract</text>
<text text-anchor="start" x="28.12" y="-164.4" font-family="Times,serif" font-size="14.00" style="">Undefined Contract</text>
</g>
<!-- key2 -->
<g id="node5" class="node" pointer-events="visible" data-name="key2">

<polygon fill="#edad56" stroke="transparent" stroke-width="3" points="247.61,-243 193.61,-243 193.61,-155 247.61,-155 247.61,-243" style=""/>
<text text-anchor="start" x="208.37" y="-224.4" font-family="Times,serif" font-size="14.00" style="">   </text>
<text text-anchor="start" x="208.37" y="-204.4" font-family="Times,serif" font-size="14.00" style="">   </text>
<polygon fill="#445773" stroke="transparent" points="206.61,-179 206.61,-199 234.61,-199 234.61,-179 206.61,-179" style=""/>
<text text-anchor="start" x="208.37" y="-184.4" font-family="Times,serif" font-size="14.00" style="">   </text>
<polygon fill="none" stroke="#e8726d" points="208.61,-161 208.61,-177 232.61,-177 232.61,-161 208.61,-161" style=""/>
</g>
<!-- key&#45;&gt;key2 -->
<g id="edge2" class="edge" data-name="key-&gt;key2">

<path fill="none" stroke="#1bc6a6" stroke-width="2" d="M141.52,-229C166.34,-229 174.94,-229 195.57,-229" style=""/>
<polygon fill="#1bc6a6" stroke="#1bc6a6" stroke-width="2" points="195.61,-232.5 205.61,-229 195.61,-225.5 195.61,-232.5" style=""/>
</g>
<!-- key&#45;&gt;key2 -->
<g id="edge3" class="edge" data-name="key-&gt;key2">

<path fill="none" stroke="white" stroke-width="2" d="M141.52,-209C166.34,-209 174.94,-209 195.57,-209" style=""/>
<polygon fill="white" stroke="white" stroke-width="2" points="195.61,-212.5 205.61,-209 195.61,-205.5 195.61,-212.5" style=""/>
</g>
</g>
</svg>