<?xml version="1.0" standalone="no"?>
<svg xmlns="http://www.w3.org/2000/svg" xmlns:xlink="http://www.w3.org/1999/xlink" width="486pt" height="655pt" viewBox="0.00 0.00 485.98 655.00">
<g id="graph0" class="graph" transform="translate(4,651) scale(1)" data-name="G">

<polygon fill="#2e3e56" stroke="transparent" points="-4,4 -4,-651 481.98,-651 481.98,4 -4,4" style=""/>
<g id="clust1" class="cluster" data-name="clusterFumigacionContract">

<path fill="#445773" stroke="#445773" d="M20,-70C20,-70 242.21,-70 242.21,-70 248.21,-70 254.21,-76 254.21,-82 254.21,-82 254.21,-459 254.21,-459 254.21,-465 248.21,-471 242.21,-471 242.21,-471 20,-471 20,-471 14,-471 8,-465 8,-459 8,-459 8,-82 8,-82 8,-76 14,-70 20,-70" style=""/>
<text text-anchor="middle" x="131.11" y="-454.4" font-family="Times,serif" font-size="14.00" fill="#f0f0f0" style="">FumigacionContract</text>
</g>
<g id="clust2" class="cluster" data-name="clusterCounters.Counter">

<path fill="#3b4b63" stroke="#e8726d" stroke-dasharray="5,2" d="M326.45,-371C326.45,-371 417.74,-371 417.74,-371 423.74,-371 429.74,-377 429.74,-383 429.74,-383 429.74,-490 429.74,-490 429.74,-496 423.74,-502 417.74,-502 417.74,-502 326.45,-502 326.45,-502 320.45,-502 314.45,-496 314.45,-490 314.45,-490 314.45,-383 314.45,-383 314.45,-377 320.45,-371 326.45,-371" style=""/>
<text text-anchor="middle" x="372.09" y="-485.4" font-family="Times,serif" font-size="14.00" fill="#f0f0f0" style="">Counters.Counter</text>
</g>
<g id="clust3" class="cluster" data-name="clusterParcelaContract">

<path fill="#3b4b63" stroke="#e8726d" stroke-dasharray="5,2" d="M289.46,-286C289.46,-286 454.73,-286 454.73,-286 460.73,-286 466.73,-292 466.73,-298 466.73,-298 466.73,-351 466.73,-351 466.73,-357 460.73,-363 454.73,-363 454.73,-363 289.46,-363 289.46,-363 283.46,-363 277.46,-357 277.46,-351 277.46,-351 277.46,-298 277.46,-298 277.46,-292 283.46,-286 289.46,-286" style=""/>
<text text-anchor="middle" x="372.09" y="-346.4" font-family="Times,serif" font-size="14.00" fill="#f0f0f0" style="">ParcelaContract</text>
</g>
<g id="clust4" class="cluster" data-name="clusterDronContract">

<path fill="#3b4b63" stroke="#e8726d" stroke-dasharray="5,2" d="M286.21,-93C286.21,-93 457.98,-93 457.98,-93 463.98,-93 469.98,-99 469.98,-105 469.98,-105 469.98,-266 469.98,-266 469.98,-272 463.98,-278 457.98,-278 457.98,-278 286.21,-278 286.21,-278 280.21,-278 274.21,-272 274.21,-266 274.21,-266 274.21,-105 274.21,-105 274.21,-99 280.21,-93 286.21,-93" style=""/>
<text text-anchor="middle" x="372.09" y="-261.4" font-family="Times,serif" font-size="14.00" fill="#f0f0f0" style="">DronContract</text>
</g>
<g id="clust5" class="cluster" data-name="clusterERC20">

<path fill="#3b4b63" stroke="#e8726d" stroke-dasharray="5,2" d="M314.65,-8C314.65,-8 429.54,-8 429.54,-8 435.54,-8 441.54,-14 441.54,-20 441.54,-20 441.54,-73 441.54,-73 441.54,-79 435.54,-85 429.54,-85 429.54,-85 314.65,-85 314.65,-85 308.65,-85 302.65,-79 302.65,-73 302.65,-73 302.65,-20 302.65,-20 302.65,-14 308.65,-8 314.65,-8" style=""/>
<text text-anchor="middle" x="372.09" y="-68.4" font-family="Times,serif" font-size="14.00" fill="#f0f0f0" style="">ERC20</text>
</g>
<g id="clust6" class="cluster" data-name="cluster_01">

<polygon fill="#2e3e56" stroke="black" points="58.11,-510 58.11,-639 407.09,-639 407.09,-510 58.11,-510" style=""/>
<text text-anchor="middle" x="232.6" y="-622.4" font-family="Times,serif" font-size="14.00" style="">Legend</text>
</g>
<!-- FumigacionContract.&lt;Constructor&gt; -->
<g id="node1" class="node" pointer-events="visible" data-name="FumigacionContract.&lt;Constructor&gt;">

<ellipse fill="#ff9797" stroke="#ff9797" stroke-width="3" cx="131.11" cy="-420" rx="67.54" ry="18" style=""/>
<text text-anchor="middle" x="131.11" y="-415.8" font-family="Times,serif" font-size="14.00" style="">&lt;Constructor&gt;</text>
</g>
<!-- FumigacionContract.RealizarFumigacion -->
<g id="node2" class="node" pointer-events="visible" data-name="FumigacionContract.RealizarFumigacion">

<ellipse fill="#ff9797" stroke="#ff9797" stroke-width="3" cx="131.11" cy="-366" rx="89.18" ry="18" style=""/>
<text text-anchor="middle" x="131.11" y="-361.8" font-family="Times,serif" font-size="14.00" style="">RealizarFumigacion</text>
</g>
<!-- FumigacionContract.SolicitarFumigacion -->
<g id="node3" class="node" pointer-events="visible" data-name="FumigacionContract.SolicitarFumigacion">

<ellipse fill="#ff9797" stroke="#ff9797" stroke-width="3" cx="131.11" cy="-312" rx="89.78" ry="18" style=""/>
<text text-anchor="middle" x="131.11" y="-307.8" font-family="Times,serif" font-size="14.00" style="">SolicitarFumigacion</text>
</g>
<!-- Counters.Counter.increment -->
<g id="node8" class="node" pointer-events="visible" data-name="Counters.Counter.increment">

<ellipse fill="#edad56" stroke="#edad56" stroke-width="3" cx="372.09" cy="-451" rx="49.8" ry="18" style=""/>
<text text-anchor="middle" x="372.09" y="-446.8" font-family="Times,serif" font-size="14.00" style="">increment</text>
</g>
<!-- FumigacionContract.SolicitarFumigacion&#45;&gt;Counters.Counter.increment -->
<g id="edge1" class="edge" data-name="FumigacionContract.SolicitarFumigacion-&gt;Counters.Counter.increment">

<path fill="none" stroke="white" stroke-width="2" d="M216.57,-317.71C230.56,-322.07 243.86,-328.78 254.21,-339 281.84,-366.26 247.33,-396 274.21,-424 284.53,-434.75 298.73,-441.33 313.08,-445.33" style=""/>
<polygon fill="white" stroke="white" stroke-width="2" points="312.45,-448.78 322.99,-447.7 314.08,-441.97 312.45,-448.78" style=""/>
</g>
<!-- Counters.Counter.current -->
<g id="node9" class="node" pointer-events="visible" data-name="Counters.Counter.current">

<ellipse fill="#edad56" stroke="#edad56" stroke-width="3" cx="372.09" cy="-397" rx="38.26" ry="18" style=""/>
<text text-anchor="middle" x="372.09" y="-392.8" font-family="Times,serif" font-size="14.00" style="">current</text>
</g>
<!-- FumigacionContract.SolicitarFumigacion&#45;&gt;Counters.Counter.current -->
<g id="edge2" class="edge" data-name="FumigacionContract.SolicitarFumigacion-&gt;Counters.Counter.current">

<path fill="none" stroke="white" stroke-width="2" d="M210.78,-320.52C226.02,-324.56 241.26,-330.44 254.21,-339 266.97,-347.43 261.81,-358.05 274.21,-367 289.13,-377.77 308.01,-384.75 325.13,-389.23" style=""/>
<polygon fill="white" stroke="white" stroke-width="2" points="324.43,-392.66 334.97,-391.6 326.06,-385.86 324.43,-392.66" style=""/>
</g>
<!-- FumigacionContract.ComprobarCompatibilidad -->
<g id="node4" class="node" pointer-events="visible" data-name="FumigacionContract.ComprobarCompatibilidad">

<ellipse fill="#ff9797" stroke="#ff9797" stroke-width="3" cx="131.11" cy="-258" rx="115.21" ry="18" style=""/>
<text text-anchor="middle" x="131.11" y="-253.8" font-family="Times,serif" font-size="14.00" style="">ComprobarCompatibilidad</text>
</g>
<!-- ParcelaContract.ObtenerInfoParcela -->
<g id="node10" class="node" pointer-events="visible" data-name="ParcelaContract.ObtenerInfoParcela">

<ellipse fill="#edad56" stroke="#edad56" stroke-width="3" cx="372.09" cy="-312" rx="86.77" ry="18" style=""/>
<text text-anchor="middle" x="372.09" y="-307.8" font-family="Times,serif" font-size="14.00" style="">ObtenerInfoParcela</text>
</g>
<!-- FumigacionContract.ComprobarCompatibilidad&#45;&gt;ParcelaContract.ObtenerInfoParcela -->
<g id="edge3" class="edge" data-name="FumigacionContract.ComprobarCompatibilidad-&gt;ParcelaContract.ObtenerInfoParcela">

<path fill="none" stroke="white" stroke-width="2" d="M198.67,-272.6C216.7,-276.59 236.21,-280.93 254.21,-285 270.28,-288.63 287.57,-292.6 303.8,-296.34" style=""/>
<polygon fill="white" stroke="white" stroke-width="2" points="303.22,-299.8 313.75,-298.64 304.79,-292.98 303.22,-299.8" style=""/>
</g>
<!-- DronContract.ComprobarPesticida -->
<g id="node11" class="node" pointer-events="visible" data-name="DronContract.ComprobarPesticida">

<ellipse fill="#edad56" stroke="#edad56" stroke-width="3" cx="372.09" cy="-227" rx="89.77" ry="18" style=""/>
<text text-anchor="middle" x="372.09" y="-222.8" font-family="Times,serif" font-size="14.00" style="">ComprobarPesticida</text>
</g>
<!-- FumigacionContract.ComprobarCompatibilidad&#45;&gt;DronContract.ComprobarPesticida -->
<g id="edge4" class="edge" data-name="FumigacionContract.ComprobarCompatibilidad-&gt;DronContract.ComprobarPesticida">

<path fill="none" stroke="white" stroke-width="2" d="M220.42,-246.54C241.88,-243.76 264.79,-240.79 286.1,-238.02" style=""/>
<polygon fill="white" stroke="white" stroke-width="2" points="286.62,-241.49 296.09,-236.73 285.72,-234.54 286.62,-241.49" style=""/>
</g>
<!-- DronContract.ComprobarAltitud -->
<g id="node12" class="node" pointer-events="visible" data-name="DronContract.ComprobarAltitud">

<ellipse fill="#edad56" stroke="#edad56" stroke-width="3" cx="372.09" cy="-173" rx="82.26" ry="18" style=""/>
<text text-anchor="middle" x="372.09" y="-168.8" font-family="Times,serif" font-size="14.00" style="">ComprobarAltitud</text>
</g>
<!-- FumigacionContract.ComprobarCompatibilidad&#45;&gt;DronContract.ComprobarAltitud -->
<g id="edge5" class="edge" data-name="FumigacionContract.ComprobarCompatibilidad-&gt;DronContract.ComprobarAltitud">

<path fill="none" stroke="white" stroke-width="2" d="M221.59,-246.81C233.18,-242.95 244.41,-237.82 254.21,-231 267.67,-221.64 261.01,-209.72 274.21,-200 281.03,-194.98 288.75,-190.89 296.77,-187.56" style=""/>
<polygon fill="white" stroke="white" stroke-width="2" points="298.16,-190.77 306.3,-183.99 295.71,-184.22 298.16,-190.77" style=""/>
</g>
<!-- FumigacionContract.PagarFumigacion -->
<g id="node5" class="node" pointer-events="visible" data-name="FumigacionContract.PagarFumigacion">

<ellipse fill="#ff9797" stroke="#ff9797" stroke-width="3" cx="131.11" cy="-204" rx="79.31" ry="18" style=""/>
<text text-anchor="middle" x="131.11" y="-199.8" font-family="Times,serif" font-size="14.00" style="">PagarFumigacion</text>
</g>
<!-- FumigacionContract.PagarFumigacion&#45;&gt;ParcelaContract.ObtenerInfoParcela -->
<g id="edge7" class="edge" data-name="FumigacionContract.PagarFumigacion-&gt;ParcelaContract.ObtenerInfoParcela">

<path fill="none" stroke="white" stroke-width="2" d="M207.49,-208.81C224.34,-212.93 241.09,-219.78 254.21,-231 272.72,-246.82 256.37,-265.43 274.21,-282 280.52,-287.86 287.94,-292.57 295.84,-296.37" style=""/>
<polygon fill="white" stroke="white" stroke-width="2" points="294.71,-299.69 305.28,-300.41 297.46,-293.26 294.71,-299.69" style=""/>
</g>
<!-- DronContract.ObtenerInfoDron -->
<g id="node13" class="node" pointer-events="visible" data-name="DronContract.ObtenerInfoDron">

<ellipse fill="#edad56" stroke="#edad56" stroke-width="3" cx="372.09" cy="-119" rx="78.13" ry="18" style=""/>
<text text-anchor="middle" x="372.09" y="-114.8" font-family="Times,serif" font-size="14.00" style="">ObtenerInfoDron</text>
</g>
<!-- FumigacionContract.PagarFumigacion&#45;&gt;DronContract.ObtenerInfoDron -->
<g id="edge6" class="edge" data-name="FumigacionContract.PagarFumigacion-&gt;DronContract.ObtenerInfoDron">

<path fill="none" stroke="white" stroke-width="2" d="M205.03,-197.48C222.25,-193.43 239.77,-187.04 254.21,-177 267.67,-167.64 261.01,-155.72 274.21,-146 281.54,-140.6 289.91,-136.28 298.58,-132.82" style=""/>
<polygon fill="white" stroke="white" stroke-width="2" points="299.85,-136.09 308.07,-129.4 297.48,-129.5 299.85,-136.09" style=""/>
</g>
<!-- ERC20.transferFrom -->
<g id="node14" class="node" pointer-events="visible" data-name="ERC20.transferFrom">

<ellipse fill="#edad56" stroke="#edad56" stroke-width="3" cx="372.09" cy="-34" rx="61.39" ry="18" style=""/>
<text text-anchor="middle" x="372.09" y="-29.8" font-family="Times,serif" font-size="14.00" style="">transferFrom</text>
</g>
<!-- FumigacionContract.PagarFumigacion&#45;&gt;ERC20.transferFrom -->
<g id="edge8" class="edge" data-name="FumigacionContract.PagarFumigacion-&gt;ERC20.transferFrom">

<path fill="none" stroke="white" stroke-width="2" d="M209.06,-200.47C225.76,-196.29 242.05,-189.09 254.21,-177 282.66,-148.72 250.29,-121.2 274.21,-89 286.18,-72.89 304.37,-60.8 321.77,-52.12" style=""/>
<polygon fill="white" stroke="white" stroke-width="2" points="323.74,-55.06 331.3,-47.65 320.76,-48.73 323.74,-55.06" style=""/>
</g>
<!-- FumigacionContract.ObtenerInfoFumigacion -->
<g id="node6" class="node" pointer-events="visible" data-name="FumigacionContract.ObtenerInfoFumigacion">

<ellipse fill="#ff9797" stroke="#ff9797" stroke-width="3" cx="131.11" cy="-150" rx="104.22" ry="18" style=""/>
<text text-anchor="middle" x="131.11" y="-145.8" font-family="Times,serif" font-size="14.00" style="">ObtenerInfoFumigacion</text>
</g>
<!-- FumigacionContract.ObtenerInfoFumigaciones -->
<g id="node7" class="node" pointer-events="visible" data-name="FumigacionContract.ObtenerInfoFumigaciones">

<ellipse fill="#ff9797" stroke="#ff9797" stroke-width="3" cx="131.11" cy="-96" rx="112.3" ry="18" style=""/>
<text text-anchor="middle" x="131.11" y="-91.8" font-family="Times,serif" font-size="14.00" style="">ObtenerInfoFumigaciones</text>
</g>
<!-- key -->
<g id="node15" class="node" pointer-events="visible" data-name="key">

<polygon fill="#edad56" stroke="transparent" stroke-width="3" points="196.11,-606 66.11,-606 66.11,-518 196.11,-518 196.11,-606" style=""/>
<text text-anchor="start" x="115.74" y="-587.4" font-family="Times,serif" font-size="14.00" style="">Internal Call</text>
<text text-anchor="start" x="111.85" y="-567.4" font-family="Times,serif" font-size="14.00" style="">External Call</text>
<text text-anchor="start" x="89.31" y="-547.4" font-family="Times,serif" font-size="14.00" style="">Defined Contract</text>
<text text-anchor="start" x="75.71" y="-527.4" font-family="Times,serif" font-size="14.00" style="">Undefined Contract</text>
</g>
<!-- key2 -->
<g id="node16" class="node" pointer-events="visible" data-name="key2">

<polygon fill="#edad56" stroke="transparent" stroke-width="3" points="399.09,-606 345.09,-606 345.09,-518 399.09,-518 399.09,-606" style=""/>
<text text-anchor="start" x="359.85" y="-587.4" font-family="Times,serif" font-size="14.00" style="">   </text>
<text text-anchor="start" x="359.85" y="-567.4" font-family="Times,serif" font-size="14.00" style="">   </text>
<polygon fill="#445773" stroke="transparent" points="358.09,-542 358.09,-562 386.09,-562 386.09,-542 358.09,-542" style=""/>
<text text-anchor="start" x="359.85" y="-547.4" font-family="Times,serif" font-size="14.00" style="">   </text>
<polygon fill="none" stroke="#e8726d" points="360.09,-524 360.09,-540 384.09,-540 384.09,-524 360.09,-524" style=""/>
</g>
<!-- key&#45;&gt;key2 -->
<g id="edge9" class="edge" data-name="key-&gt;key2">

<path fill="none" stroke="#1bc6a6" stroke-width="2" d="M189.11,-592C260.27,-592 280.56,-592 346.95,-592" style=""/>
<polygon fill="#1bc6a6" stroke="#1bc6a6" stroke-width="2" points="347.09,-595.5 357.09,-592 347.09,-588.5 347.09,-595.5" style=""/>
</g>
<!-- key&#45;&gt;key2 -->
<g id="edge10" class="edge" data-name="key-&gt;key2">

<path fill="none" stroke="white" stroke-width="2" d="M189.11,-572C260.27,-572 280.56,-572 346.95,-572" style=""/>
<polygon fill="white" stroke="white" stroke-width="2" points="347.09,-575.5 357.09,-572 347.09,-568.5 347.09,-575.5" style=""/>
</g>
</g>
</svg>