<?xml version="1.0" standalone="no"?>
<svg xmlns="http://www.w3.org/2000/svg" xmlns:xlink="http://www.w3.org/1999/xlink" width="1618pt" height="332pt" viewBox="0.00 0.00 1618.12 332.00">
<g id="graph0" class="graph" transform="translate(4,328) scale(1)" data-name="G">

<polygon fill="white" stroke="transparent" points="-4,4 -4,-328 1614.12,-328 1614.12,4 -4,4" style=""/>
<!-- ParcelaContract -->
<g id="node1" class="node" pointer-events="visible" data-name="ParcelaContract">

<ellipse fill="none" stroke="black" cx="72.7" cy="-306" rx="72.91" ry="18" style=""/>
<text text-anchor="middle" x="72.7" y="-301.8" font-family="Times,serif" font-size="14.00" style="">ParcelaContract</text>
</g>
<!-- ERC721 -->
<g id="node2" class="node" pointer-events="visible" data-name="ERC721">

<ellipse fill="none" stroke="black" cx="227.7" cy="-234" rx="44.1" ry="18" style=""/>
<text text-anchor="middle" x="227.7" y="-229.8" font-family="Times,serif" font-size="14.00" style="">ERC721</text>
</g>
<!-- ParcelaContract&#45;&gt;ERC721 -->
<g id="edge1" class="edge" data-name="ParcelaContract-&gt;ERC721">

<path fill="none" stroke="black" d="M105.95,-289.98C130.56,-278.87 164.13,-263.71 189.78,-252.13" style=""/>
<polygon fill="black" stroke="black" points="191.52,-255.18 199.19,-247.88 188.63,-248.8 191.52,-255.18" style=""/>
</g>
<!-- Context -->
<g id="node4" class="node" pointer-events="visible" data-name="Context">

<ellipse fill="none" stroke="black" cx="424.7" cy="-162" rx="41.73" ry="18" style=""/>
<text text-anchor="middle" x="424.7" y="-157.8" font-family="Times,serif" font-size="14.00" style="">Context</text>
</g>
<!-- ERC721&#45;&gt;Context -->
<g id="edge3" class="edge" data-name="ERC721-&gt;Context">

<path fill="none" stroke="black" d="M260.23,-221.44C294,-209.44 346.9,-190.65 383.55,-177.62" style=""/>
<polygon fill="black" stroke="black" points="385.18,-180.76 393.43,-174.11 382.83,-174.16 385.18,-180.76" style=""/>
</g>
<!-- ERC165 -->
<g id="node5" class="node" pointer-events="visible" data-name="ERC165">

<ellipse fill="none" stroke="black" cx="265.7" cy="-90" rx="44.1" ry="18" style=""/>
<text text-anchor="middle" x="265.7" y="-85.8" font-family="Times,serif" font-size="14.00" style="">ERC165</text>
</g>
<!-- ERC721&#45;&gt;ERC165 -->
<g id="edge4" class="edge" data-name="ERC721-&gt;ERC165">

<path fill="none" stroke="black" d="M232.29,-215.87C238.79,-191.56 250.77,-146.82 258.47,-118.01" style=""/>
<polygon fill="black" stroke="black" points="261.9,-118.75 261.1,-108.19 255.14,-116.94 261.9,-118.75" style=""/>
</g>
<!-- IERC721 -->
<g id="node6" class="node" pointer-events="visible" data-name="IERC721">

<ellipse fill="none" stroke="black" cx="155.7" cy="-90" rx="47.53" ry="18" style=""/>
<text text-anchor="middle" x="155.7" y="-85.8" font-family="Times,serif" font-size="14.00" style="">IERC721</text>
</g>
<!-- ERC721&#45;&gt;IERC721 -->
<g id="edge5" class="edge" data-name="ERC721-&gt;IERC721">

<path fill="none" stroke="black" d="M226.93,-215.94C225.45,-197.26 221.15,-166.9 208.7,-144 202.44,-132.48 192.89,-121.81 183.62,-113.12" style=""/>
<polygon fill="black" stroke="black" points="185.77,-110.34 175.97,-106.3 181.11,-115.57 185.77,-110.34" style=""/>
</g>
<!-- IERC721Metadata -->
<g id="node7" class="node" pointer-events="visible" data-name="IERC721Metadata">

<ellipse fill="none" stroke="black" cx="116.7" cy="-162" rx="83.39" ry="18" style=""/>
<text text-anchor="middle" x="116.7" y="-157.8" font-family="Times,serif" font-size="14.00" style="">IERC721Metadata</text>
</g>
<!-- ERC721&#45;&gt;IERC721Metadata -->
<g id="edge6" class="edge" data-name="ERC721-&gt;IERC721Metadata">

<path fill="none" stroke="black" d="M204.7,-218.5C189.24,-208.74 168.57,-195.71 151.16,-184.73" style=""/>
<polygon fill="black" stroke="black" points="152.71,-181.57 142.39,-179.2 148.98,-187.49 152.71,-181.57" style=""/>
</g>
<!-- DronContract -->
<g id="node3" class="node" pointer-events="visible" data-name="DronContract">

<ellipse fill="none" stroke="black" cx="227.7" cy="-306" rx="64.26" ry="18" style=""/>
<text text-anchor="middle" x="227.7" y="-301.8" font-family="Times,serif" font-size="14.00" style="">DronContract</text>
</g>
<!-- DronContract&#45;&gt;ERC721 -->
<g id="edge2" class="edge" data-name="DronContract-&gt;ERC721">

<path fill="none" stroke="black" d="M227.7,-287.7C227.7,-279.98 227.7,-270.71 227.7,-262.11" style=""/>
<polygon fill="black" stroke="black" points="231.2,-262.1 227.7,-252.1 224.2,-262.1 231.2,-262.1" style=""/>
</g>
<!-- IERC165 -->
<g id="node8" class="node" pointer-events="visible" data-name="IERC165">

<ellipse fill="none" stroke="black" cx="210.7" cy="-18" rx="47.53" ry="18" style=""/>
<text text-anchor="middle" x="210.7" y="-13.8" font-family="Times,serif" font-size="14.00" style="">IERC165</text>
</g>
<!-- ERC165&#45;&gt;IERC165 -->
<g id="edge9" class="edge" data-name="ERC165-&gt;IERC165">

<path fill="none" stroke="black" d="M252.67,-72.41C245.89,-63.78 237.47,-53.06 229.95,-43.5" style=""/>
<polygon fill="black" stroke="black" points="232.57,-41.17 223.64,-35.47 227.07,-45.5 232.57,-41.17" style=""/>
</g>
<!-- IERC721&#45;&gt;IERC165 -->
<g id="edge7" class="edge" data-name="IERC721-&gt;IERC165">

<path fill="none" stroke="black" d="M168.74,-72.41C175.52,-63.78 183.94,-53.06 191.46,-43.5" style=""/>
<polygon fill="black" stroke="black" points="194.34,-45.5 197.76,-35.47 188.83,-41.17 194.34,-45.5" style=""/>
</g>
<!-- IERC721Metadata&#45;&gt;IERC721 -->
<g id="edge8" class="edge" data-name="IERC721Metadata-&gt;IERC721">

<path fill="none" stroke="black" d="M126.14,-144.05C130.74,-135.8 136.37,-125.7 141.47,-116.54" style=""/>
<polygon fill="black" stroke="black" points="144.54,-118.23 146.35,-107.79 138.42,-114.82 144.54,-118.23" style=""/>
</g>
<!-- IERC721Receiver -->
<g id="node9" class="node" pointer-events="visible" data-name="IERC721Receiver">

<ellipse fill="none" stroke="black" cx="787.7" cy="-306" rx="81.66" ry="18" style=""/>
<text text-anchor="middle" x="787.7" y="-301.8" font-family="Times,serif" font-size="14.00" style="">IERC721Receiver</text>
</g>
<!-- Address -->
<g id="node10" class="node" pointer-events="visible" data-name="Address">

<ellipse fill="none" stroke="black" cx="930.7" cy="-306" rx="42.86" ry="18" style=""/>
<text text-anchor="middle" x="930.7" y="-301.8" font-family="Times,serif" font-size="14.00" style="">Address</text>
</g>
<!-- Strings -->
<g id="node11" class="node" pointer-events="visible" data-name="Strings">

<ellipse fill="none" stroke="black" cx="1029.7" cy="-306" rx="38.3" ry="18" style=""/>
<text text-anchor="middle" x="1029.7" y="-301.8" font-family="Times,serif" font-size="14.00" style="">Strings</text>
</g>
<!-- Counters -->
<g id="node12" class="node" pointer-events="visible" data-name="Counters">

<ellipse fill="none" stroke="black" cx="1131.7" cy="-306" rx="45.81" ry="18" style=""/>
<text text-anchor="middle" x="1131.7" y="-301.8" font-family="Times,serif" font-size="14.00" style="">Counters</text>
</g>
<!-- TiposContract -->
<g id="node13" class="node" pointer-events="visible" data-name="TiposContract">

<ellipse fill="none" stroke="black" cx="1261.7" cy="-306" rx="66.07" ry="18" style=""/>
<text text-anchor="middle" x="1261.7" y="-301.8" font-family="Times,serif" font-size="14.00" style="">TiposContract</text>
</g>
<!-- FumigacionContract -->
<g id="node14" class="node" pointer-events="visible" data-name="FumigacionContract">

<ellipse fill="none" stroke="black" cx="400.7" cy="-306" rx="90.35" ry="18" style=""/>
<text text-anchor="middle" x="400.7" y="-301.8" font-family="Times,serif" font-size="14.00" style="">FumigacionContract</text>
</g>
<!-- Ownable -->
<g id="node15" class="node" pointer-events="visible" data-name="Ownable">

<ellipse fill="none" stroke="black" cx="424.7" cy="-234" rx="45.79" ry="18" style=""/>
<text text-anchor="middle" x="424.7" y="-229.8" font-family="Times,serif" font-size="14.00" style="">Ownable</text>
</g>
<!-- FumigacionContract&#45;&gt;Ownable -->
<g id="edge10" class="edge" data-name="FumigacionContract-&gt;Ownable">

<path fill="none" stroke="black" d="M406.64,-287.7C409.31,-279.9 412.53,-270.51 415.5,-261.83" style=""/>
<polygon fill="black" stroke="black" points="418.91,-262.7 418.84,-252.1 412.28,-260.43 418.91,-262.7" style=""/>
</g>
<!-- Ownable&#45;&gt;Context -->
<g id="edge11" class="edge" data-name="Ownable-&gt;Context">

<path fill="none" stroke="black" d="M424.7,-215.7C424.7,-207.98 424.7,-198.71 424.7,-190.11" style=""/>
<polygon fill="black" stroke="black" points="428.2,-190.1 424.7,-180.1 421.2,-190.1 428.2,-190.1" style=""/>
</g>
<!-- EnumerableSet -->
<g id="node16" class="node" pointer-events="visible" data-name="EnumerableSet">

<ellipse fill="none" stroke="black" cx="1415.7" cy="-306" rx="70.06" ry="18" style=""/>
<text text-anchor="middle" x="1415.7" y="-301.8" font-family="Times,serif" font-size="14.00" style="">EnumerableSet</text>
</g>
<!-- ERC20 -->
<g id="node17" class="node" pointer-events="visible" data-name="ERC20">

<ellipse fill="none" stroke="black" cx="574.7" cy="-234" rx="39.45" ry="18" style=""/>
<text text-anchor="middle" x="574.7" y="-229.8" font-family="Times,serif" font-size="14.00" style="">ERC20</text>
</g>
<!-- ERC20&#45;&gt;Context -->
<g id="edge12" class="edge" data-name="ERC20-&gt;Context">

<path fill="none" stroke="black" d="M548.23,-220.65C524.01,-209.34 487.94,-192.51 461.03,-179.95" style=""/>
<polygon fill="black" stroke="black" points="462.46,-176.76 451.92,-175.7 459.5,-183.1 462.46,-176.76" style=""/>
</g>
<!-- IERC20 -->
<g id="node18" class="node" pointer-events="visible" data-name="IERC20">

<ellipse fill="none" stroke="black" cx="587.7" cy="-90" rx="42.88" ry="18" style=""/>
<text text-anchor="middle" x="587.7" y="-85.8" font-family="Times,serif" font-size="14.00" style="">IERC20</text>
</g>
<!-- ERC20&#45;&gt;IERC20 -->
<g id="edge13" class="edge" data-name="ERC20-&gt;IERC20">

<path fill="none" stroke="black" d="M565.68,-216.46C557.06,-198.48 546.38,-168.98 553.7,-144 556.62,-134.03 562.06,-124.17 567.74,-115.7" style=""/>
<polygon fill="black" stroke="black" points="570.68,-117.6 573.66,-107.43 564.99,-113.53 570.68,-117.6" style=""/>
</g>
<!-- IERC20Metadata -->
<g id="node19" class="node" pointer-events="visible" data-name="IERC20Metadata">

<ellipse fill="none" stroke="black" cx="641.7" cy="-162" rx="78.73" ry="18" style=""/>
<text text-anchor="middle" x="641.7" y="-157.8" font-family="Times,serif" font-size="14.00" style="">IERC20Metadata</text>
</g>
<!-- ERC20&#45;&gt;IERC20Metadata -->
<g id="edge14" class="edge" data-name="ERC20-&gt;IERC20Metadata">

<path fill="none" stroke="black" d="M589.91,-217.12C598.4,-208.24 609.15,-197.01 618.66,-187.08" style=""/>
<polygon fill="black" stroke="black" points="621.24,-189.44 625.63,-179.8 616.18,-184.6 621.24,-189.44" style=""/>
</g>
<!-- IERC20Metadata&#45;&gt;IERC20 -->
<g id="edge15" class="edge" data-name="IERC20Metadata-&gt;IERC20">

<path fill="none" stroke="black" d="M628.63,-144.05C621.97,-135.42 613.75,-124.76 606.42,-115.27" style=""/>
<polygon fill="black" stroke="black" points="609.16,-113.09 600.28,-107.31 603.62,-117.36 609.16,-113.09" style=""/>
</g>
<!-- FumiTokenContract -->
<g id="node20" class="node" pointer-events="visible" data-name="FumiTokenContract">

<ellipse fill="none" stroke="black" cx="598.7" cy="-306" rx="89.21" ry="18" style=""/>
<text text-anchor="middle" x="598.7" y="-301.8" font-family="Times,serif" font-size="14.00" style="">FumiTokenContract</text>
</g>
<!-- FumiTokenContract&#45;&gt;Ownable -->
<g id="edge17" class="edge" data-name="FumiTokenContract-&gt;Ownable">

<path fill="none" stroke="black" d="M560.52,-289.64C532.21,-278.25 493.7,-262.76 464.91,-251.18" style=""/>
<polygon fill="black" stroke="black" points="466.14,-247.9 455.55,-247.41 463.53,-254.39 466.14,-247.9" style=""/>
</g>
<!-- FumiTokenContract&#45;&gt;ERC20 -->
<g id="edge16" class="edge" data-name="FumiTokenContract-&gt;ERC20">

<path fill="none" stroke="black" d="M592.77,-287.7C590.1,-279.9 586.88,-270.51 583.9,-261.83" style=""/>
<polygon fill="black" stroke="black" points="587.12,-260.43 580.57,-252.1 580.5,-262.7 587.12,-260.43" style=""/>
</g>
<!-- Migrations -->
<g id="node21" class="node" pointer-events="visible" data-name="Migrations">

<ellipse fill="none" stroke="black" cx="1556.7" cy="-306" rx="53.33" ry="18" style=""/>
<text text-anchor="middle" x="1556.7" y="-301.8" font-family="Times,serif" font-size="14.00" style="">Migrations</text>
</g>
</g>
</svg>