<?xml version="1.0" standalone="no"?>
<svg xmlns="http://www.w3.org/2000/svg" xmlns:xlink="http://www.w3.org/1999/xlink" width="357pt" height="763pt" viewBox="0.00 0.00 357.16 763.00">
<g id="graph0" class="graph" transform="translate(4,759) scale(1)" data-name="G">

<polygon fill="#2e3e56" stroke="transparent" points="-4,4 -4,-759 353.16,-759 353.16,4 -4,4" style=""/>
<g id="clust1" class="cluster" data-name="clusterParcelaContract">

<path fill="#445773" stroke="#445773" d="M20,-147C20,-147 329.16,-147 329.16,-147 335.16,-147 341.16,-153 341.16,-159 341.16,-159 341.16,-598 341.16,-598 341.16,-604 335.16,-610 329.16,-610 329.16,-610 20,-610 20,-610 14,-610 8,-604 8,-598 8,-598 8,-159 8,-159 8,-153 14,-147 20,-147" style=""/>
<text text-anchor="middle" x="174.58" y="-593.4" font-family="Times,serif" font-size="14.00" fill="#f0f0f0" style="">ParcelaContract</text>
</g>
<g id="clust2" class="cluster" data-name="clusterCounters.Counter">

<path fill="#3b4b63" stroke="#e8726d" stroke-dasharray="5,2" d="M237.33,-8C237.33,-8 328.62,-8 328.62,-8 334.62,-8 340.62,-14 340.62,-20 340.62,-20 340.62,-127 340.62,-127 340.62,-133 334.62,-139 328.62,-139 328.62,-139 237.33,-139 237.33,-139 231.33,-139 225.33,-133 225.33,-127 225.33,-127 225.33,-20 225.33,-20 225.33,-14 231.33,-8 237.33,-8" style=""/>
<text text-anchor="middle" x="282.97" y="-122.4" font-family="Times,serif" font-size="14.00" fill="#f0f0f0" style="">Counters.Counter</text>
</g>
<g id="clust3" class="cluster" data-name="cluster_01">

<polygon fill="#2e3e56" stroke="black" points="33.39,-618 33.39,-747 317.97,-747 317.97,-618 33.39,-618" style=""/>
<text text-anchor="middle" x="175.68" y="-730.4" font-family="Times,serif" font-size="14.00" style="">Legend</text>
</g>
<!-- ParcelaContract.&lt;Constructor&gt; -->
<g id="node1" class="node" pointer-events="visible" data-name="ParcelaContract.&lt;Constructor&gt;">

<ellipse fill="#ff9797" stroke="#ff9797" stroke-width="3" cx="106.39" cy="-559" rx="67.54" ry="18" style=""/>
<text text-anchor="middle" x="106.39" y="-554.8" font-family="Times,serif" font-size="14.00" style="">&lt;Constructor&gt;</text>
</g>
<!-- ParcelaContract.SoloPropietario -->
<g id="node2" class="node" pointer-events="visible" data-name="ParcelaContract.SoloPropietario">

<polygon fill="#edad56" stroke="#1bc6a6" stroke-width="3" points="184,-493.54 184,-508.46 138.54,-519 74.24,-519 28.78,-508.46 28.78,-493.54 74.24,-483 138.54,-483 184,-493.54" style=""/>
<polygon fill="none" stroke="#1bc6a6" stroke-width="3" points="188.01,-490.37 188.01,-511.63 139,-523 73.79,-523 24.78,-511.63 24.78,-490.37 73.79,-479 139,-479 188.01,-490.37" style=""/>
<text text-anchor="middle" x="106.39" y="-496.8" font-family="Times,serif" font-size="14.00" style="">SoloPropietario</text>
</g>
<!-- ParcelaContract.ownerOf -->
<g id="node9" class="node" pointer-events="visible" data-name="ParcelaContract.ownerOf">

<ellipse fill="#edad56" stroke="#edad56" stroke-width="3" cx="282.97" cy="-501" rx="45.21" ry="18" style=""/>
<text text-anchor="middle" x="282.97" y="-496.8" font-family="Times,serif" font-size="14.00" style="">ownerOf</text>
</g>
<!-- ParcelaContract.SoloPropietario&#45;&gt;ParcelaContract.ownerOf -->
<g id="edge1" class="edge" data-name="ParcelaContract.SoloPropietario-&gt;ParcelaContract.ownerOf">

<path fill="none" stroke="#1bc6a6" stroke-width="2" d="M188.04,-501C201.3,-501 214.77,-501 227.21,-501" style=""/>
<polygon fill="#1bc6a6" stroke="#1bc6a6" stroke-width="2" points="227.39,-504.5 237.39,-501 227.39,-497.5 227.39,-504.5" style=""/>
</g>
<!-- ParcelaContract.CrearParcela -->
<g id="node3" class="node" pointer-events="visible" data-name="ParcelaContract.CrearParcela">

<ellipse fill="#ff9797" stroke="#ff9797" stroke-width="3" cx="106.39" cy="-443" rx="60.79" ry="18" style=""/>
<text text-anchor="middle" x="106.39" y="-438.8" font-family="Times,serif" font-size="14.00" style="">CrearParcela</text>
</g>
<!-- ParcelaContract._safeMint -->
<g id="node10" class="node" pointer-events="visible" data-name="ParcelaContract._safeMint">

<ellipse fill="#edad56" stroke="#edad56" stroke-width="3" cx="282.97" cy="-443" rx="50.38" ry="18" style=""/>
<text text-anchor="middle" x="282.97" y="-438.8" font-family="Times,serif" font-size="14.00" style="">_safeMint</text>
</g>
<!-- ParcelaContract.CrearParcela&#45;&gt;ParcelaContract._safeMint -->
<g id="edge4" class="edge" data-name="ParcelaContract.CrearParcela-&gt;ParcelaContract._safeMint">

<path fill="none" stroke="#1bc6a6" stroke-width="2" d="M167.47,-443C185.28,-443 204.77,-443 222.54,-443" style=""/>
<polygon fill="#1bc6a6" stroke="#1bc6a6" stroke-width="2" points="222.78,-446.5 232.78,-443 222.78,-439.5 222.78,-446.5" style=""/>
</g>
<!-- Counters.Counter.increment -->
<g id="node11" class="node" pointer-events="visible" data-name="Counters.Counter.increment">

<ellipse fill="#edad56" stroke="#edad56" stroke-width="3" cx="282.97" cy="-88" rx="49.8" ry="18" style=""/>
<text text-anchor="middle" x="282.97" y="-83.8" font-family="Times,serif" font-size="14.00" style="">increment</text>
</g>
<!-- ParcelaContract.CrearParcela&#45;&gt;Counters.Counter.increment -->
<g id="edge2" class="edge" data-name="ParcelaContract.CrearParcela-&gt;Counters.Counter.increment">

<path fill="none" stroke="white" stroke-width="2" d="M163.87,-436.59C176.4,-432.54 188.42,-426.12 196.78,-416 235.65,-368.99 198.68,-197.87 225.33,-143 231.33,-130.64 241.31,-119.53 251.24,-110.59" style=""/>
<polygon fill="white" stroke="white" stroke-width="2" points="253.76,-113.04 259.11,-103.89 249.23,-107.7 253.76,-113.04" style=""/>
</g>
<!-- Counters.Counter.current -->
<g id="node12" class="node" pointer-events="visible" data-name="Counters.Counter.current">

<ellipse fill="#edad56" stroke="#edad56" stroke-width="3" cx="282.97" cy="-34" rx="38.26" ry="18" style=""/>
<text text-anchor="middle" x="282.97" y="-29.8" font-family="Times,serif" font-size="14.00" style="">current</text>
</g>
<!-- ParcelaContract.CrearParcela&#45;&gt;Counters.Counter.current -->
<g id="edge3" class="edge" data-name="ParcelaContract.CrearParcela-&gt;Counters.Counter.current">

<path fill="none" stroke="white" stroke-width="2" d="M164.04,-436.73C176.56,-432.68 188.54,-426.22 196.78,-416 246.48,-354.4 180.43,-126.18 225.33,-61 229.19,-55.39 234.54,-50.92 240.42,-47.35" style=""/>
<polygon fill="white" stroke="white" stroke-width="2" points="242.04,-50.45 249.31,-42.75 238.82,-44.24 242.04,-50.45" style=""/>
</g>
<!-- ParcelaContract.ConfigurarAltitud -->
<g id="node4" class="node" pointer-events="visible" data-name="ParcelaContract.ConfigurarAltitud">

<ellipse fill="#ff9797" stroke="#ff9797" stroke-width="3" cx="106.39" cy="-389" rx="80.54" ry="18" style=""/>
<text text-anchor="middle" x="106.39" y="-384.8" font-family="Times,serif" font-size="14.00" style="">ConfigurarAltitud</text>
</g>
<!-- ParcelaContract.ConfigurarPesticida -->
<g id="node5" class="node" pointer-events="visible" data-name="ParcelaContract.ConfigurarPesticida">

<ellipse fill="#ff9797" stroke="#ff9797" stroke-width="3" cx="106.39" cy="-335" rx="88.04" ry="18" style=""/>
<text text-anchor="middle" x="106.39" y="-330.8" font-family="Times,serif" font-size="14.00" style="">ConfigurarPesticida</text>
</g>
<!-- ParcelaContract.ObtenerInfoParcela -->
<g id="node6" class="node" pointer-events="visible" data-name="ParcelaContract.ObtenerInfoParcela">

<ellipse fill="#ff9797" stroke="#ff9797" stroke-width="3" cx="106.39" cy="-281" rx="86.77" ry="18" style=""/>
<text text-anchor="middle" x="106.39" y="-276.8" font-family="Times,serif" font-size="14.00" style="">ObtenerInfoParcela</text>
</g>
<!-- ParcelaContract.ObtenerInfoParcelas -->
<g id="node7" class="node" pointer-events="visible" data-name="ParcelaContract.ObtenerInfoParcelas">

<ellipse fill="#ff9797" stroke="#ff9797" stroke-width="3" cx="106.39" cy="-227" rx="90.29" ry="18" style=""/>
<text text-anchor="middle" x="106.39" y="-222.8" font-family="Times,serif" font-size="14.00" style="">ObtenerInfoParcelas</text>
</g>
<!-- ParcelaContract.ComprobarAltitud -->
<g id="node8" class="node" pointer-events="visible" data-name="ParcelaContract.ComprobarAltitud">

<ellipse fill="#ff9797" stroke="#ff9797" stroke-width="3" cx="106.39" cy="-173" rx="82.26" ry="18" style=""/>
<text text-anchor="middle" x="106.39" y="-168.8" font-family="Times,serif" font-size="14.00" style="">ComprobarAltitud</text>
</g>
<!-- key -->
<g id="node13" class="node" pointer-events="visible" data-name="key">

<polygon fill="#edad56" stroke="transparent" stroke-width="3" points="171.39,-714 41.39,-714 41.39,-626 171.39,-626 171.39,-714" style=""/>
<text text-anchor="start" x="91.03" y="-695.4" font-family="Times,serif" font-size="14.00" style="">Internal Call</text>
<text text-anchor="start" x="87.14" y="-675.4" font-family="Times,serif" font-size="14.00" style="">External Call</text>
<text text-anchor="start" x="64.6" y="-655.4" font-family="Times,serif" font-size="14.00" style="">Defined Contract</text>
<text text-anchor="start" x="51" y="-635.4" font-family="Times,serif" font-size="14.00" style="">Undefined Contract</text>
</g>
<!-- key2 -->
<g id="node14" class="node" pointer-events="visible" data-name="key2">

<polygon fill="#edad56" stroke="transparent" stroke-width="3" points="309.97,-714 255.97,-714 255.97,-626 309.97,-626 309.97,-714" style=""/>
<text text-anchor="start" x="270.73" y="-695.4" font-family="Times,serif" font-size="14.00" style="">   </text>
<text text-anchor="start" x="270.73" y="-675.4" font-family="Times,serif" font-size="14.00" style="">   </text>
<polygon fill="#445773" stroke="transparent" points="268.97,-650 268.97,-670 296.97,-670 296.97,-650 268.97,-650" style=""/>
<text text-anchor="start" x="270.73" y="-655.4" font-family="Times,serif" font-size="14.00" style="">   </text>
<polygon fill="none" stroke="#e8726d" points="270.97,-632 270.97,-648 294.97,-648 294.97,-632 270.97,-632" style=""/>
</g>
<!-- key&#45;&gt;key2 -->
<g id="edge5" class="edge" data-name="key-&gt;key2">

<path fill="none" stroke="#1bc6a6" stroke-width="2" d="M164.39,-700C206.83,-700 219.93,-700 257.78,-700" style=""/>
<polygon fill="#1bc6a6" stroke="#1bc6a6" stroke-width="2" points="257.97,-703.5 267.97,-700 257.97,-696.5 257.97,-703.5" style=""/>
</g>
<!-- key&#45;&gt;key2 -->
<g id="edge6" class="edge" data-name="key-&gt;key2">

<path fill="none" stroke="white" stroke-width="2" d="M164.39,-680C206.83,-680 219.93,-680 257.78,-680" style=""/>
<polygon fill="white" stroke="white" stroke-width="2" points="257.97,-683.5 267.97,-680 257.97,-676.5 257.97,-683.5" style=""/>
</g>
</g>
</svg>