<?xml version="1.0" standalone="no"?>
<svg xmlns="http://www.w3.org/2000/svg" xmlns:xlink="http://www.w3.org/1999/xlink" width="260pt" height="153pt" viewBox="0.00 0.00 260.00 153.00">
<g id="graph0" class="graph" transform="translate(4,149) scale(1)" data-name="G">

<polygon fill="#2e3e56" stroke="transparent" points="-4,4 -4,-149 256,-149 256,4 -4,4" style=""/>
<g id="clust2" class="cluster" data-name="cluster_01">

<polygon fill="#2e3e56" stroke="black" points="8,-8 8,-137 244,-137 244,-8 8,-8" style=""/>
<text text-anchor="middle" x="126" y="-120.4" font-family="Times,serif" font-size="14.00" style="">Legend</text>
</g>
<!-- key -->
<g id="node1" class="node" pointer-events="visible" data-name="key">

<polygon fill="#edad56" stroke="transparent" stroke-width="3" points="146,-104 16,-104 16,-16 146,-16 146,-104" style=""/>
<text text-anchor="start" x="65.64" y="-85.4" font-family="Times,serif" font-size="14.00" style="">Internal Call</text>
<text text-anchor="start" x="61.74" y="-65.4" font-family="Times,serif" font-size="14.00" style="">External Call</text>
<text text-anchor="start" x="39.21" y="-45.4" font-family="Times,serif" font-size="14.00" style="">Defined Contract</text>
<text text-anchor="start" x="25.6" y="-25.4" font-family="Times,serif" font-size="14.00" style="">Undefined Contract</text>
</g>
<!-- key2 -->
<g id="node2" class="node" pointer-events="visible" data-name="key2">

<polygon fill="#edad56" stroke="transparent" stroke-width="3" points="236,-104 182,-104 182,-16 236,-16 236,-104" style=""/>
<text text-anchor="start" x="196.76" y="-85.4" font-family="Times,serif" font-size="14.00" style="">   </text>
<text text-anchor="start" x="196.76" y="-65.4" font-family="Times,serif" font-size="14.00" style="">   </text>
<polygon fill="#445773" stroke="transparent" points="195,-40 195,-60 223,-60 223,-40 195,-40" style=""/>
<text text-anchor="start" x="196.76" y="-45.4" font-family="Times,serif" font-size="14.00" style="">   </text>
<polygon fill="none" stroke="#e8726d" points="197,-22 197,-38 221,-38 221,-22 197,-22" style=""/>
</g>
<!-- key&#45;&gt;key2 -->
<g id="edge1" class="edge" data-name="key-&gt;key2">

<path fill="none" stroke="#1bc6a6" stroke-width="2" d="M139,-90C159.62,-90 167.2,-90 183.74,-90" style=""/>
<polygon fill="#1bc6a6" stroke="#1bc6a6" stroke-width="2" points="184,-93.5 194,-90 184,-86.5 184,-93.5" style=""/>
</g>
<!-- key&#45;&gt;key2 -->
<g id="edge2" class="edge" data-name="key-&gt;key2">

<path fill="none" stroke="white" stroke-width="2" d="M139,-70C159.62,-70 167.2,-70 183.74,-70" style=""/>
<polygon fill="white" stroke="white" stroke-width="2" points="184,-73.5 194,-70 184,-66.5 184,-73.5" style=""/>
</g>
</g>
</svg>